<?xml version="1.0" encoding="UTF-8"?><svg xmlns="http://www.w3.org/2000/svg" viewBox="0 0 472 340.02"><g id="a"/><g id="b"><g id="c"><g id="d"><g><path d="M397.42,157.4l-10.02-27.72-20.95-57.93m30.15,125.94l-7.7-21.29-16.9-46.72-31.94-88.34m47.62,182.63s-3.48-9.6-12.09-33.44l-1.93-5.32c-.68-1.84-1.36-3.77-2.1-5.78v-.03c-1.19-3.28-2.46-6.77-3.79-10.45l-2.07-5.72c-3.54-9.8-7.56-20.92-12.12-33.55-.62-1.7-1.25-3.4-1.87-5.12l-3.88-10.76c-8.69-24.01-19-52.55-31.2-86.3m144.63,108.87l-7.16-19.85c-1.22,.71-2.55,1.36-3.94,1.84-12.74,4.62-26.84-1.98-31.46-14.78-4.62-12.74,1.98-26.84,14.75-31.46,1.36-.51,2.8-.88,4.19-1.1l-18.69-51.67c-5.1-14.1-20.61-21.38-34.71-16.31l-67.61,24.46L34.12,129.68l-26.13,9.46c-4.11,4.73-6.57,10.93-6.57,17.67v54.73c.96-.11,1.93-.17,2.89-.17,13.59,0,24.58,11.01,24.58,24.58,0,1.33-.11,2.63-.31,3.91,.76,1.27,1.42,2.66,1.95,4.13,4.62,12.8-1.98,26.87-14.75,31.51-.91,.31-1.84,.59-2.77,.82l17.39,48.08c2.27,6.23,6.6,11.16,11.92,14.21h28.46l300.81-108.78,16.11-5.86,1.22-.42,14.47-5.21,51.96-18.8c6.99-2.55,12.32-7.67,15.26-13.93v-23.53l-9.32-25.71Z" fill="#fff" stroke="#000" stroke-miterlimit="10" stroke-width="2.83"/><path d="M387.68,223.96l-16.11,5.83L70.76,338.61h-28.46c-5.32-3.06-9.66-7.98-11.92-14.21l-17.39-48.08c.93-.23,1.87-.51,2.77-.82,12.77-4.64,19.37-18.72,14.75-31.51-.54-1.47-1.19-2.86-1.95-4.13,.2-1.27,.31-2.58,.31-3.91,0-13.56-10.99-24.58-24.58-24.58-.96,0-1.93,.06-2.89,.17v-54.73c0-6.74,2.46-12.94,6.57-17.67l26.13-9.46L316.64,27.49c12.2,33.75,22.51,62.29,31.2,86.3,1.33,3.68,2.63,7.28,3.88,10.76,.62,1.73,1.25,3.43,1.87,5.12,4.56,12.63,8.58,23.76,12.12,33.55,.71,1.95,1.42,3.88,2.07,5.72,1.33,3.68,2.6,7.16,3.79,10.45v.03c.74,2.01,1.42,3.94,2.1,5.78,.65,1.84,1.3,3.62,1.93,5.32,8.61,23.84,12.09,33.44,12.09,33.44Z" fill="#ab91e8" stroke="#000" stroke-miterlimit="10" stroke-width="2.83"/><text transform="translate(40.76 230.82) rotate(-19.88)" font-family="Ailerons-Regular, Ailerons" font-size="84.94"><tspan x="0" y="0">Ticket</tspan></text><line x1="99.95" y1="248.78" x2="278.34" y2="184.25" fill="none" stroke="#fff" stroke-miterlimit="10" stroke-width="4.05"/><line x1="154.02" y1="244.27" x2="233.9" y2="215.38" fill="none" stroke="#fff" stroke-miterlimit="10" stroke-width="2.71"/><line x1="114.39" y1="288.72" x2="292.79" y2="224.19" fill="none" stroke="#fff" stroke-dasharray="0 0 0 0 0 0 0 56.63 0 56.63 0 56.63" stroke-linecap="round" stroke-miterlimit="10" stroke-width="8.49"/></g><g><g><path d="M403.37,279.32v-91.09m-14.47,128.69V150.66m-17.33,187.95V129.68m89.7,6.68c-4.76-4.19-10.99-6.68-17.78-6.68H28.54c-8.21,0-15.6,3.65-20.56,9.46-4.11,4.73-6.57,10.93-6.57,17.67v54.73c.96-.11,1.93-.17,2.89-.17,13.59,0,24.58,11.01,24.58,24.58,0,1.33-.11,2.63-.31,3.91-1.87,11.75-12.01,20.7-24.27,20.7-.96,0-1.93-.06-2.89-.17v51.14c0,14.95,12.15,27.1,27.13,27.1H443.49c14.98,0,27.1-12.15,27.1-27.1v-51.36c-1.39,.25-2.86,.4-4.33,.4-13.56,0-24.58-11.01-24.58-24.61s11.01-24.58,24.58-24.58c1.47,0,2.94,.14,4.33,.4v-54.96c0-8.18-3.6-15.49-9.32-20.44Z" fill="#fff"/><path d="M443.49,340.02H28.54C12.8,340.02,0,327.23,0,311.51v-52.73l1.58,.19c.9,.11,1.82,.16,2.72,.16,11.45,0,21.07-8.2,22.87-19.5,.19-1.25,.29-2.49,.29-3.69,0-12.77-10.39-23.16-23.16-23.16-.9,0-1.82,.05-2.72,.16L0,213.13v-56.32C0,149.95,2.46,143.34,6.92,138.21c5.39-6.32,13.28-9.94,21.62-9.94H443.49c6.92,0,13.56,2.5,18.71,7.03,6.23,5.4,9.8,13.24,9.8,21.51v56.66l-1.67-.31c-1.35-.25-2.72-.37-4.08-.37-12.77,0-23.16,10.39-23.16,23.16s10.39,23.19,23.16,23.19c1.36,0,2.73-.13,4.08-.37l1.67-.31v53.06c0,15.72-12.79,28.51-28.51,28.51Zm-70.5-2.83h70.5c14.16,0,25.68-11.52,25.68-25.68v-49.72c-.97,.11-1.95,.17-2.92,.17-14.33,0-25.99-11.67-25.99-26.02s11.66-25.99,25.99-25.99c.97,0,1.95,.06,2.92,.17v-53.32c0-7.45-3.22-14.51-8.83-19.37h0c-4.63-4.09-10.62-6.34-16.85-6.34h-70.5v206.1ZM2.83,261.92v49.59c0,14.16,11.53,25.68,25.71,25.68H370.15V131.09H28.54c-7.52,0-14.62,3.27-19.48,8.96-4.02,4.63-6.23,10.58-6.23,16.75v53.19c.49-.03,.98-.04,1.47-.04,14.33,0,25.99,11.66,25.99,25.99,0,1.34-.11,2.72-.33,4.13-2.02,12.69-12.81,21.9-25.66,21.9-.49,0-.98-.01-1.47-.04Zm387.48,55h-2.83V150.66h2.83v166.26Zm14.47-37.6h-2.83v-91.09h2.83v91.09Z"/></g><g><path d="M371.57,129.68v208.93H28.54c-14.98,0-27.13-12.15-27.13-27.1v-51.14c.96,.11,1.93,.17,2.89,.17,12.26,0,22.4-8.95,24.27-20.7,.2-1.27,.31-2.58,.31-3.91,0-13.56-10.99-24.58-24.58-24.58-.96,0-1.93,.06-2.89,.17v-54.73c0-6.74,2.46-12.94,6.57-17.67,4.96-5.8,12.35-9.46,20.56-9.46H371.57Z" fill="#ab91e8"/><path d="M372.98,340.02H28.54C12.8,340.02,0,327.23,0,311.51v-52.73l1.58,.19c.9,.11,1.82,.16,2.72,.16,11.45,0,21.07-8.2,22.87-19.5,.19-1.25,.29-2.49,.29-3.69,0-12.77-10.39-23.16-23.16-23.16-.9,0-1.82,.05-2.72,.16L0,213.13v-56.32C0,149.95,2.46,143.34,6.92,138.21c5.39-6.32,13.28-9.94,21.62-9.94H372.98v211.76ZM2.83,261.92v49.59c0,14.16,11.53,25.68,25.71,25.68H370.15V131.09H28.54c-7.52,0-14.62,3.27-19.48,8.96-4.02,4.63-6.23,10.58-6.23,16.75v53.19c.49-.03,.98-.04,1.47-.04,14.33,0,25.99,11.66,25.99,25.99,0,1.34-.11,2.72-.33,4.13-2.02,12.69-12.81,21.9-25.66,21.9-.49,0-.98-.01-1.47-.04Z"/></g><g><path d="M78.42,171.99c-.34,.76-1.27,1.61-3.23,1.61h-4.76c-.85,0-1.44,.68-1.53,1.44v51.99h-4.33c-1.44,0-1.7-.85-1.7-1.27v-52.16h-8.58v-4.16c0-1.02,.85-1.87,1.87-1.87h24.29l-2.04,4.42Z"/><path d="M111.55,167.57c1.78,0,2.46,1.36,2.46,2.38v57.08h-4.33c-1.44,0-1.7-.85-1.78-1.27v-58.19h3.65Z"/><path d="M167.19,220.07c0,4.08-3.23,7.39-7.31,7.56h-3.74c-4.25,0-7.65-3.4-7.65-7.56v-45.53c0-4.16,3.4-7.56,7.65-7.56h3.74c4.08,.08,7.31,3.48,7.31,7.56v9.09c0,1.95-.85,2.89-1.61,3.23l-4.42,2.04v-13.34c0-1.78-1.44-3.23-3.31-3.23s-3.23,1.44-3.23,3.23v43.41c0,1.87,1.44,3.31,3.23,3.31s3.31-1.44,3.31-3.31v-7.98c0-1.95,.85-2.89,1.61-3.31,.51-.25,2.89-1.27,4.42-1.95v14.36Z"/><path d="M206.68,227.04h-6.03v-57.17c0-1.87,1.27-2.21,1.95-2.29h4.08v21.66l7.48-21.49h6.37l-9.6,26.76,10.28,32.53h-6.37l-8.15-26.59v26.59Z"/><path d="M271.58,221.01c-.68,1.53-1.7,3.91-1.95,4.42-.42,.76-1.36,1.61-3.31,1.61h-13.59v-57.76c.08-.93,.85-1.7,1.87-1.7h15.89l-2.04,4.42c-.34,.76-1.27,1.7-3.23,1.7h-4.93c-.85,0-1.44,.59-1.44,1.44v17.67h9.17c-.68,1.53-1.7,3.99-1.95,4.5-.42,.76-1.27,1.61-3.23,1.61h-2.55c-.76,0-1.44,.68-1.44,1.44v20.64h12.74Z"/><path d="M320.51,171.99c-.34,.76-1.27,1.61-3.23,1.61h-4.76c-.85,0-1.44,.68-1.53,1.44v51.99h-4.33c-1.44,0-1.7-.85-1.7-1.27v-52.16h-8.58v-4.16c0-1.02,.85-1.87,1.87-1.87h24.29l-2.04,4.42Z"/></g><rect x="92.55" y="262.03" width="189.71" height="4.05" fill="#fff"/><rect x="144.93" y="276.86" width="84.94" height="2.71" fill="#fff"/><g><path d="M92.55,310.77c-1.12,0-2.22-.45-3.01-1.24-.19-.2-.37-.41-.53-.65-.15-.23-.28-.47-.39-.73-.1-.26-.18-.52-.24-.79-.05-.28-.08-.56-.08-.83,0-1.12,.45-2.21,1.24-3.01,.79-.79,1.89-1.24,3.01-1.24s2.21,.45,3,1.24,1.24,1.89,1.24,3.01c0,.27-.02,.55-.08,.83-.05,.27-.14,.53-.24,.79-.11,.26-.24,.5-.39,.73-.16,.24-.34,.45-.53,.65-.79,.79-1.88,1.24-3,1.24Z" fill="#fff"/><path d="M151.53,306.53c0-2.35,1.91-4.25,4.25-4.25h0c2.34,0,4.25,1.9,4.25,4.25h0c0,2.34-1.91,4.24-4.25,4.24h0c-2.34,0-4.25-1.9-4.25-4.24Zm-31.61,0c0-2.35,1.9-4.25,4.24-4.25h0c2.35,0,4.25,1.9,4.25,4.25h0c0,2.34-1.9,4.24-4.25,4.24h0c-2.34,0-4.24-1.9-4.24-4.24Z" fill="#fff"/><path d="M246.39,306.53c0-2.35,1.9-4.25,4.24-4.25h0c2.35,0,4.25,1.9,4.25,4.25h0c0,2.34-1.9,4.24-4.25,4.24h0c-2.34,0-4.24-1.9-4.24-4.24Zm-31.62,0c0-2.35,1.9-4.25,4.25-4.25h0c2.34,0,4.24,1.9,4.24,4.25h0c0,2.34-1.9,4.24-4.24,4.24h0c-2.35,0-4.25-1.9-4.25-4.24Zm-31.62,0c0-2.35,1.9-4.25,4.25-4.25h0c2.34,0,4.25,1.9,4.25,4.25h0c0,2.34-1.91,4.24-4.25,4.24h0c-2.35,0-4.25-1.9-4.25-4.24Z" fill="#fff"/><path d="M282.25,310.77c-1.12,0-2.21-.45-3-1.24-.2-.2-.38-.41-.53-.65-.15-.23-.28-.47-.39-.73-.11-.26-.19-.52-.24-.79-.06-.28-.09-.56-.09-.83,0-1.12,.46-2.21,1.25-3.01,.79-.79,1.88-1.24,3-1.24s2.22,.45,3,1.24c.8,.79,1.25,1.89,1.25,3.01,0,.27-.03,.55-.08,.83-.06,.27-.14,.53-.25,.79-.1,.26-.23,.5-.39,.73-.15,.24-.33,.45-.53,.65-.78,.79-1.88,1.24-3,1.24Z" fill="#fff"/></g></g></g></g></g></svg>